<svg width="898" height="898" viewBox="0 0 898 898" fill="none" xmlns="http://www.w3.org/2000/svg">
<path fill-rule="evenodd" clip-rule="evenodd" d="M641.153 373.737C641.153 364.298 648.749 356.581 658.253 356.581C667.672 356.581 675.362 364.298 675.362 373.737C675.362 383.184 667.672 390.901 658.253 390.901C648.749 390.901 641.153 383.184 641.153 373.737ZM567.761 535.975C567.761 526.537 575.459 518.82 584.86 518.82C594.28 518.82 601.969 526.537 601.969 535.975C601.969 545.423 594.28 553.14 584.86 553.14C575.459 553.14 567.761 545.423 567.761 535.975ZM665.942 500.663C665.942 491.131 673.547 483.498 683.051 483.498C692.461 483.498 700.066 491.131 700.066 500.663C700.066 510.102 692.461 517.735 683.051 517.735C673.547 517.735 665.942 510.102 665.942 500.663ZM573.551 378.367C573.551 368.928 581.156 361.211 590.566 361.211C600.07 361.211 607.665 368.928 607.665 378.367C607.665 387.815 600.07 395.532 590.566 395.532C581.156 395.532 573.551 387.815 573.551 378.367ZM420.526 388.357C420.526 378.919 428.224 371.202 437.635 371.202C447.045 371.202 454.734 378.919 454.734 388.357C454.734 397.889 447.045 405.513 437.635 405.513C428.224 405.513 420.526 397.889 420.526 388.357ZM499.073 486.043C499.073 476.604 506.762 468.981 516.182 468.981C525.592 468.981 533.281 476.604 533.281 486.043C533.281 495.575 525.592 503.198 516.182 503.198C506.762 503.198 499.073 495.575 499.073 486.043ZM334.561 544.693C334.561 535.246 342.157 527.622 351.576 527.622C361.071 527.622 368.676 535.246 368.676 544.693C368.676 554.225 361.071 561.849 351.576 561.849C342.157 561.849 334.561 554.225 334.561 544.693ZM332.026 464.35C332.026 454.903 339.715 447.185 349.126 447.185C358.536 447.185 366.234 454.903 366.234 464.35C366.234 473.789 358.536 481.506 349.126 481.506C339.715 481.506 332.026 473.789 332.026 464.35ZM259.906 436.924C259.906 427.486 267.501 419.862 277.005 419.862C286.415 419.862 294.114 427.486 294.114 436.924C294.114 446.465 286.415 454.089 277.005 454.089C267.501 454.089 259.906 446.465 259.906 436.924ZM217.101 518.642C217.101 509.194 224.696 501.477 234.2 501.477C243.611 501.477 251.216 509.194 251.216 518.642C251.216 528.071 243.611 535.797 234.2 535.797C224.696 535.797 217.101 528.071 217.101 518.642ZM271.486 459.533C269.222 458.99 267.052 458.083 265.06 456.811C257.371 470.15 249.588 483.405 241.805 496.753C243.975 497.483 246.061 498.568 247.867 499.934C255.743 486.501 263.61 472.966 271.486 459.533ZM351.576 521.542C351.034 510.195 350.398 498.848 349.855 487.502C349.584 487.502 349.397 487.502 349.126 487.502C347.049 487.502 344.963 487.231 342.886 486.679C343.513 498.661 344.149 510.653 344.692 522.627C346.955 521.897 349.219 521.542 351.576 521.542ZM664.043 513.825C662.687 511.916 661.695 509.83 660.965 507.557C642.51 513.637 624.138 519.811 605.673 525.901C606.674 527.987 607.394 530.166 607.759 532.523C626.495 526.256 645.222 520.092 664.043 513.825ZM536.443 497.305C535.273 499.297 533.917 501.206 532.196 502.749C543.056 510.102 553.823 517.454 564.683 524.816C565.768 522.72 567.218 520.906 568.846 519.278C558.079 511.916 547.219 504.564 536.443 497.305ZM606.58 395.073C604.953 396.71 603.054 398.076 600.968 399.077C622.875 427.486 644.773 455.903 666.578 484.321C668.206 482.684 670.114 481.235 672.097 480.14C650.292 451.816 628.478 423.491 606.58 395.073ZM567.761 381.912C550.839 388.544 534.011 395.167 517.08 401.79L516.902 401.883L516.631 401.79C497.988 397.337 479.354 392.987 460.702 388.544C460.702 390.901 460.347 393.165 459.617 395.438C478.531 399.881 497.445 404.334 516.359 408.777C516.995 408.964 517.716 408.964 518.352 408.693C535.545 401.977 552.644 395.251 569.847 388.544C568.846 386.449 568.125 384.185 567.761 381.912ZM528.127 466.249C530.11 467.428 531.925 468.981 533.468 470.702C548.753 446.736 564.047 422.677 579.35 398.619C577.264 397.44 575.459 396.074 573.916 394.344C558.622 418.318 543.421 442.284 528.127 466.249ZM299.81 440.647C299.446 443.013 298.725 445.184 297.64 447.279C307.228 451.544 316.826 455.716 326.414 459.898C326.872 457.625 327.686 455.455 328.771 453.359C319.089 449.187 309.492 444.922 299.81 440.647ZM665.044 395.251C662.874 395.981 660.516 396.346 658.253 396.346L676.447 478.419C678.523 477.783 680.787 477.418 683.051 477.418C683.051 477.418 683.144 477.418 683.228 477.418L665.044 395.251ZM298.903 429.581C336.367 407.608 373.923 385.729 411.387 363.756L412.023 363.391L412.472 363.933C415.101 366.936 417.813 369.929 420.442 372.829C421.976 371.108 423.781 369.649 425.774 368.47C423.426 365.842 421.068 363.204 418.805 360.669L418.084 359.846L418.992 359.303C422.341 357.311 425.689 355.402 429.122 353.401C466.951 335.431 504.685 317.452 542.514 299.483L542.963 299.296L543.327 299.567C555.722 308.276 568.125 316.91 580.52 325.534L580.884 325.806V326.171C581.698 336.245 582.606 346.319 583.419 356.31C585.683 355.589 587.937 355.215 590.295 355.215C589.659 347.685 589.023 340.239 588.396 332.793L588.218 330.894L637.346 365.29C638.254 363.12 639.432 361.127 640.882 359.303L587.488 321.989L587.395 321.531C587.311 319.81 587.124 318.182 586.946 316.452V315.816L587.488 315.544C607.394 308.005 629.03 305.741 649.928 310.1C665.848 313.458 680.787 320.446 693.462 330.707C697.709 334.065 701.6 337.788 705.22 341.783L705.94 342.596L675.988 359.846C677.438 361.67 678.523 363.662 679.337 365.842L710.29 348.05L710.739 348.593C715.538 355.038 719.607 362.119 722.778 369.471C732.188 391.622 733.367 416.045 728.474 439.384C728.297 440.469 728.568 441.648 729.298 442.462C750.644 465.707 767.93 494.209 768.295 526.715C768.379 536.883 766.845 546.966 763.861 556.676L763.496 557.855L762.505 557.134C742.683 542.149 722.871 527.164 703.05 512.197C701.871 514.189 700.421 516.004 698.794 517.547C719.335 533.16 739.971 548.781 760.512 564.3L761.055 564.758L760.784 565.385C754.722 580.641 745.583 594.804 735.079 607.432L734.807 607.787H734.452C688.925 607.787 643.417 607.787 597.984 607.787H597.17L597.086 606.973C595.542 590.632 593.999 574.29 592.465 557.855C590.295 558.678 588.031 559.033 585.683 559.127C587.217 575.01 588.667 590.903 590.201 606.796L590.295 607.787H589.303C572.737 607.787 556.274 607.787 539.707 607.787H537.35L539.165 606.244C539.979 605.523 540.437 604.523 540.343 603.428C538.622 574.832 536.995 546.33 535.274 517.819C535.18 516.453 534.282 515.274 533.01 514.825C527.949 512.917 522.879 511.102 517.809 509.194C517.257 509.278 516.724 509.278 516.182 509.278C510.12 509.278 504.414 506.93 500.074 502.749C499.251 502.384 498.353 502.113 497.445 501.748L495.275 500.934L497.445 500.121C497.539 500.121 497.632 500.121 497.717 500.027C496.36 498.212 495.182 496.117 494.461 493.938C491.468 495.032 488.577 496.117 485.594 497.212L485.322 497.305L485.051 497.212C476.183 494.031 467.4 490.757 458.625 487.586L458.448 487.502L458.354 487.408C441.881 473.059 425.325 458.719 408.852 444.37L408.309 443.921L408.674 443.285C409.039 442.649 409.394 442.013 409.853 441.283L409.937 441.012L410.218 440.918C419.076 437.289 427.86 433.566 436.634 429.843L437.092 429.665L437.541 430.03C456.811 445.184 476.183 460.44 495.546 475.697C496.538 473.602 497.894 471.703 499.531 469.972C479.616 454.36 459.711 438.654 439.805 422.949C438.804 422.219 437.363 422.041 436.185 422.584C430.123 425.128 424.062 427.673 418 430.208L415.643 431.209L416.999 428.935C420.713 422.49 424.417 416.045 428.131 409.507C426.045 408.599 424.062 407.337 422.341 405.784C416.728 415.596 411.022 425.484 405.325 435.296L405.148 435.568L404.876 435.652C392.66 440.825 380.35 445.913 368.133 451.095C369.396 452.994 370.481 455.09 371.211 457.269C380.621 453.359 390.125 449.365 399.535 445.464L400.349 445.099L400.714 445.913C400.892 446.465 401.256 446.998 401.705 447.373H401.799C419.357 462.62 436.905 477.876 454.463 493.124C454.734 493.404 455.099 493.582 455.548 493.76C461.432 495.939 467.306 498.025 473.199 500.205L475.369 501.028L473.199 501.842C453.013 509.372 432.836 516.911 412.659 524.451L412.117 524.629L411.752 524.17C396.551 509.465 381.341 494.761 366.234 479.962C364.607 481.684 362.792 483.143 360.8 484.321C376.73 499.849 392.566 515.274 408.496 530.709L408.581 530.802V530.896C422.967 553.411 437.363 575.927 451.75 598.349L453.649 601.342L450.572 599.621C424.511 584.729 398.45 569.837 372.296 555.048C371.304 557.134 369.939 559.033 368.311 560.67C394.914 575.833 421.527 590.996 448.13 606.15L451.03 607.787H447.765C418.627 607.787 389.395 607.787 360.257 607.787H359.537L359.443 606.973C357.993 593.896 356.553 580.735 355.196 567.667C354.018 567.845 352.746 567.929 351.576 567.929C350.482 567.929 349.313 567.845 348.228 567.667C349.126 576.292 350.126 584.907 351.034 593.541L351.389 597.17L349.49 594.083C336.554 574.103 323.607 554.047 310.764 534.067H310.671C310.222 533.16 309.398 532.523 308.407 532.346C291.307 528.623 274.199 524.9 257.099 521.186C256.828 523.543 256.285 525.807 255.378 527.893C271.935 531.523 288.595 535.161 305.236 538.697L305.601 538.791L305.778 539.062C320.259 561.578 334.739 583.999 349.219 606.431L350.126 607.787H348.499C300.446 607.787 252.301 607.787 204.248 607.787H202.985L203.434 606.608C211.666 584.729 219.907 562.85 228.139 540.97C225.875 540.428 223.798 539.427 221.806 538.248C213.116 561.213 204.52 584.177 195.829 607.245L195.652 607.787H195.016C184.071 607.787 173.033 607.787 162.08 607.787H161.808L161.537 607.609C144.428 595.084 133.119 577.742 129.415 556.769C126.609 541.335 128.236 525.171 133.213 510.373C135.112 504.742 137.469 499.204 140.359 494.031L140.724 493.404L141.36 493.676C164.615 501.112 187.869 508.652 211.217 516.182C211.395 513.825 212.031 511.561 212.938 509.465C192.574 502.927 172.304 496.398 151.949 489.766L149.592 489.045L151.949 488.138C186.962 474.967 221.984 461.806 257.006 448.729C255.827 446.736 255.013 444.557 254.471 442.284C220.085 455.174 185.699 468.064 151.407 481.057L148.142 482.235L150.406 479.598C152.033 477.876 153.661 476.062 155.476 474.509C163.614 466.885 174.203 461.263 185.605 462.161C187.504 462.264 189.141 460.805 189.319 458.99C189.319 458.448 189.225 457.989 189.141 457.531H189.048V457.447C187.869 452.817 188.599 447.279 189.684 442.649C192.574 430.301 199.814 418.131 208.14 408.599L208.504 408.15L209.131 408.422C209.318 408.506 209.496 408.599 209.767 408.693C224.977 415.325 240.178 422.041 255.378 428.758C256.285 426.485 257.464 424.314 258.998 422.49C244.247 416.045 229.495 409.685 214.837 403.333L213.574 402.791L214.566 401.883C224.884 392.174 237.278 384.999 251.038 381.182C266.051 377.104 281.617 377.459 296.733 381.089C298.538 381.547 300.447 380.369 300.896 378.46C300.896 378.367 300.989 378.189 300.989 378.096V378.011C302.981 367.02 305.965 356.038 310.399 345.777C317.003 330.249 327.143 316.639 342.615 309.006C347.863 306.461 353.475 304.656 359.265 303.646L360.257 303.468V304.469C360.351 305.283 360.622 306.012 361.164 306.648C376.281 323.533 391.388 340.417 406.588 357.404L407.318 358.124L406.41 358.667C369.49 380.275 332.662 401.883 295.741 423.398C297.098 425.306 298.183 427.392 298.903 429.581ZM576.628 314.366C566.133 307.097 555.722 299.745 545.226 292.486C544.141 291.757 542.785 291.672 541.606 292.308C503.058 310.549 464.593 328.893 426.045 347.227C425.961 347.227 425.867 347.32 425.689 347.414C421.798 349.678 417.907 351.951 414.015 354.224L413.379 354.589L412.93 354.037C397.992 337.424 383.062 320.717 368.133 304.104L366.861 302.738L368.676 302.654C376.907 302.205 385.233 303.01 393.287 304.469C408.038 307.191 422.612 312.28 436.278 318.276C437.906 318.902 439.805 318.276 440.619 316.816L440.712 316.723C446.044 308.37 452.648 300.662 460.169 294.123C472.834 283.132 488.306 275.05 505.05 272.609C523.328 269.877 540.792 274.33 556.274 284.217C564.683 289.671 572.194 296.48 578.798 304.02L578.986 304.198L579.079 304.562C579.257 306.648 579.435 308.734 579.528 310.82L579.612 311.279L579.257 311.55C578.527 312.102 578.078 312.916 577.985 313.823L577.807 315.179L576.628 314.366ZM465.678 607.338C449.486 582.007 433.285 556.592 417.093 531.261L416.457 530.353L417.448 529.979C439.983 521.542 462.517 513.188 485.051 504.742L485.322 504.657L485.594 504.742C499.709 509.924 513.918 515.097 528.033 520.279L528.576 520.457V521.093C530.204 548.594 531.841 576.198 533.468 603.793C533.552 604.794 534.011 605.608 534.731 606.244L536.536 607.787H534.188C511.561 607.787 489.036 607.787 466.408 607.787H465.95L465.678 607.338ZM585.861 303.384L585.767 302.561C585.683 301.831 585.412 301.101 584.953 300.568C577.629 292.121 569.388 284.498 559.978 278.418C543.056 267.52 524.058 262.796 504.049 265.705C486.043 268.343 469.392 277.052 455.735 288.95C448.579 295.124 442.153 302.289 436.727 310.184L436.363 310.736L435.726 310.465C422.518 304.927 408.674 300.297 394.559 297.659C376.281 294.301 356.637 294.488 339.631 302.832C322.616 311.185 311.391 325.89 303.973 343.055C299.904 352.493 297.098 362.577 295.012 372.745L294.834 373.559L294.02 373.381C279.091 370.378 263.881 370.556 249.223 374.56C231.759 379.368 216.371 389.264 204.248 402.603C194.66 413.136 186.335 427.037 182.986 441.012C181.985 445.277 181.359 449.917 181.621 454.267L181.714 455.174H180.9C169.413 455.904 159.096 461.712 150.77 469.336C145.064 474.602 140.266 480.776 136.29 487.408C136.197 487.502 136.197 487.502 136.103 487.586V487.68C132.221 494.125 129.05 501.028 126.693 508.193C121.361 524.086 119.64 541.419 122.624 558.042C126.786 581.184 139.368 600.163 158.366 613.783L158.46 613.877C159.096 614.419 159.909 614.69 160.723 614.69C173.118 614.69 185.605 614.69 198.009 614.69C250.851 614.69 303.608 614.69 356.459 614.69C482.787 614.69 609.209 614.69 735.537 614.69H736.435C737.436 614.69 738.437 614.232 739.063 613.418C751.196 598.985 761.775 582.737 768.295 564.936H768.379C768.379 564.758 768.473 564.664 768.473 564.477C772.916 552.326 775.264 539.605 775.17 526.63C774.806 493.03 757.706 463.714 735.902 439.384L735.63 439.01V438.654C740.326 414.502 738.792 389.536 729.111 366.749C722.142 350.585 711.469 336.339 697.802 325.357C684.323 314.366 668.299 306.92 651.284 303.384C629.928 298.931 607.852 300.839 587.395 308.192L586.31 308.65L586.216 307.472C586.132 306.106 585.954 304.74 585.861 303.384Z" fill="#6AC66B"/>
<path d="M293.966 638V718.529C293.966 722.664 290.447 726.056 286.312 726.056H251.437C247.302 726.056 243.784 722.664 243.784 718.529V704.231H234V721.669C234 729.434 240.14 735.588 247.919 735.588H289.817C297.596 735.588 303.75 729.434 303.75 721.669V638H293.966Z" fill="#6AC66B"/>
<path d="M336.98 665.838C329.215 665.838 323.061 672.118 323.061 679.897V721.669C323.061 729.434 329.215 735.588 336.98 735.588H372.486C380.265 735.588 386.405 729.434 386.405 721.669V679.897C386.405 672.118 380.265 665.838 372.486 665.838H336.98ZM339.742 674.501H369.724C373.86 674.501 377.378 678.257 377.378 682.407V719.16C377.378 723.295 373.86 726.939 369.724 726.939H339.742C335.606 726.939 332.088 723.295 332.088 719.16V682.407C332.088 678.257 335.606 674.501 339.742 674.501Z" fill="#6AC66B"/>
<path d="M406.482 638V721.669C406.482 729.434 412.622 735.588 420.401 735.588H444.861V726.939H423.289C419.154 726.939 415.635 723.295 415.635 719.16V674.501H444.861V665.838H415.635V638H406.482Z" fill="#6AC66B"/>
<path d="M470.198 665.838C462.544 665.838 456.278 672.244 456.278 679.897V685.042H465.306V682.407C465.306 678.257 468.824 674.501 472.959 674.501H500.18C504.33 674.501 507.834 678.257 507.834 682.407V693.817H467.45C459.671 693.817 453.517 699.956 453.517 707.736V721.669C453.517 729.434 459.671 735.588 467.45 735.588H490.018C498.302 735.588 505.072 730.948 507.834 723.926V735.588H516.861V679.897C516.861 672.118 510.721 665.838 502.942 665.838H470.198ZM507.834 702.101V711.632C507.834 720.029 500.937 726.939 492.527 726.939H470.198C466.063 726.939 462.544 723.295 462.544 719.16V709.74C462.544 705.605 466.063 702.101 470.198 702.101H507.834Z" fill="#6AC66B"/>
<path d="M572.687 638V735.588H582.471V701.47H630.144L652.095 735.588H663.757L641.932 701.47H642.311C650.09 701.47 656.23 695.316 656.23 687.537V651.919C656.23 644.14 650.09 638 642.311 638H572.687ZM582.471 691.938V647.532H638.918C643.054 647.532 646.572 650.91 646.572 655.059V684.411C646.572 688.546 643.054 691.938 638.918 691.938H582.471Z" fill="#6AC66B"/>
</svg>
